<svg width="660" height="111" viewBox="0 0 660 111" fill="none" xmlns="http://www.w3.org/2000/svg">
<g clip-path="url(#clip0)">
<mask id="mask0" mask-type="alpha" maskUnits="userSpaceOnUse" x="241" y="16" width="389" height="76">
<path d="M256.695 39.45V91H242.895V39.45H256.695ZM258.345 24.8C258.345 25.9667 258.112 27.05 257.645 28.05C257.178 29.05 256.545 29.9333 255.745 30.7C254.978 31.4667 254.062 32.0667 252.995 32.5C251.962 32.9333 250.845 33.15 249.645 33.15C248.512 33.15 247.428 32.9333 246.395 32.5C245.395 32.0667 244.512 31.4667 243.745 30.7C242.978 29.9333 242.362 29.05 241.895 28.05C241.462 27.05 241.245 25.9667 241.245 24.8C241.245 23.6333 241.462 22.55 241.895 21.55C242.362 20.5167 242.978 19.6167 243.745 18.85C244.512 18.0833 245.395 17.4833 246.395 17.05C247.428 16.6167 248.512 16.4 249.645 16.4C250.845 16.4 251.962 16.6167 252.995 17.05C254.062 17.4833 254.978 18.0833 255.745 18.85C256.545 19.6167 257.178 20.5167 257.645 21.55C258.112 22.55 258.345 23.6333 258.345 24.8ZM281.271 45.45C282.305 44.45 283.371 43.5333 284.471 42.7C285.605 41.8667 286.788 41.15 288.021 40.55C289.288 39.95 290.638 39.4833 292.071 39.15C293.538 38.8167 295.121 38.65 296.821 38.65C299.621 38.65 302.105 39.1333 304.271 40.1C306.438 41.0667 308.255 42.4167 309.721 44.15C311.221 45.8833 312.338 47.95 313.071 50.35C313.838 52.75 314.221 55.3833 314.221 58.25V91H300.471V58.25C300.471 55.3833 299.805 53.1667 298.471 51.6C297.138 50 295.171 49.2 292.571 49.2C290.638 49.2 288.821 49.6167 287.121 50.45C285.421 51.2833 283.805 52.45 282.271 53.95V91H268.471V39.45H276.971C278.705 39.45 279.855 40.25 280.421 41.85L281.271 45.45ZM339.41 39.45V91H325.61V39.45H339.41ZM341.06 24.8C341.06 25.9667 340.826 27.05 340.36 28.05C339.893 29.05 339.26 29.9333 338.46 30.7C337.693 31.4667 336.776 32.0667 335.71 32.5C334.676 32.9333 333.56 33.15 332.36 33.15C331.226 33.15 330.143 32.9333 329.11 32.5C328.11 32.0667 327.226 31.4667 326.46 30.7C325.693 29.9333 325.076 29.05 324.61 28.05C324.176 27.05 323.96 25.9667 323.96 24.8C323.96 23.6333 324.176 22.55 324.61 21.55C325.076 20.5167 325.693 19.6167 326.46 18.85C327.226 18.0833 328.11 17.4833 329.11 17.05C330.143 16.6167 331.226 16.4 332.36 16.4C333.56 16.4 334.676 16.6167 335.71 17.05C336.776 17.4833 337.693 18.0833 338.46 18.85C339.26 19.6167 339.893 20.5167 340.36 21.55C340.826 22.55 341.06 23.6333 341.06 24.8ZM404.886 91H391.136V49.35H368.286V76.25C368.286 77.6833 368.62 78.8167 369.286 79.65C369.986 80.4833 370.97 80.9 372.236 80.9C372.903 80.9 373.47 80.8333 373.936 80.7C374.403 80.5333 374.803 80.3667 375.136 80.2C375.47 80 375.77 79.8333 376.036 79.7C376.336 79.5333 376.636 79.45 376.936 79.45C377.336 79.45 377.67 79.55 377.936 79.75C378.203 79.9167 378.47 80.2167 378.736 80.65L382.886 87.25C380.986 88.75 378.836 89.8833 376.436 90.65C374.036 91.4167 371.553 91.8 368.986 91.8C366.653 91.8 364.586 91.4667 362.786 90.8C360.986 90.1 359.47 89.1167 358.236 87.85C357.003 86.5833 356.07 85.05 355.436 83.25C354.803 81.45 354.486 79.4167 354.486 77.15V49.35H349.636C348.903 49.35 348.27 49.1167 347.736 48.65C347.236 48.1833 346.986 47.4833 346.986 46.55V41.15L355.236 39.65L358.036 26.3C358.403 24.8 359.42 24.05 361.086 24.05H368.286V39.75H404.886V91ZM407.036 24.7C407.036 25.8333 406.803 26.9167 406.336 27.95C405.87 28.95 405.236 29.8333 404.436 30.6C403.67 31.3333 402.753 31.9333 401.686 32.4C400.653 32.8333 399.536 33.05 398.336 33.05C397.203 33.05 396.12 32.8333 395.086 32.4C394.086 31.9333 393.203 31.3333 392.436 30.6C391.67 29.8333 391.053 28.95 390.586 27.95C390.153 26.9167 389.936 25.8333 389.936 24.7C389.936 23.5333 390.153 22.45 390.586 21.45C391.053 20.4167 391.67 19.5167 392.436 18.75C393.203 17.9833 394.086 17.3833 395.086 16.95C396.12 16.4833 397.203 16.25 398.336 16.25C399.536 16.25 400.653 16.4833 401.686 16.95C402.753 17.3833 403.67 17.9833 404.436 18.75C405.236 19.5167 405.87 20.4167 406.336 21.45C406.803 22.45 407.036 23.5333 407.036 24.7ZM443.664 69.45C440.297 69.6167 437.497 69.9167 435.264 70.35C433.03 70.75 431.247 71.2833 429.914 71.95C428.614 72.6167 427.68 73.3833 427.114 74.25C426.58 75.0833 426.314 76 426.314 77C426.314 79 426.864 80.4167 427.964 81.25C429.097 82.0833 430.664 82.5 432.664 82.5C434.964 82.5 436.947 82.1 438.614 81.3C440.314 80.4667 441.997 79.1833 443.664 77.45V69.45ZM415.564 46.6C418.597 43.8667 421.947 41.8333 425.614 40.5C429.28 39.1333 433.247 38.45 437.514 38.45C440.58 38.45 443.314 38.95 445.714 39.95C448.147 40.95 450.197 42.35 451.864 44.15C453.564 45.9167 454.864 48.0333 455.764 50.5C456.664 52.9667 457.114 55.6667 457.114 58.6V91H450.814C449.514 91 448.514 90.8167 447.814 90.45C447.147 90.0833 446.597 89.3167 446.164 88.15L445.064 84.85C443.764 85.9833 442.497 86.9833 441.264 87.85C440.064 88.7167 438.814 89.45 437.514 90.05C436.214 90.6167 434.814 91.05 433.314 91.35C431.847 91.65 430.197 91.8 428.364 91.8C426.097 91.8 424.03 91.5 422.164 90.9C420.297 90.3 418.68 89.4167 417.314 88.25C415.98 87.05 414.947 85.5667 414.214 83.8C413.48 82.0333 413.114 80 413.114 77.7C413.114 75.8 413.597 73.9 414.564 72C415.53 70.1 417.18 68.3833 419.514 66.85C421.88 65.2833 425.014 64 428.914 63C432.847 61.9667 437.764 61.3833 443.664 61.25V58.6C443.664 55.3667 442.98 53 441.614 51.5C440.247 49.9667 438.28 49.2 435.714 49.2C433.814 49.2 432.23 49.4333 430.964 49.9C429.697 50.3333 428.58 50.8167 427.614 51.35C426.68 51.85 425.797 52.3333 424.964 52.8C424.13 53.2333 423.164 53.45 422.064 53.45C421.097 53.45 420.28 53.2167 419.614 52.75C418.98 52.25 418.447 51.6667 418.014 51L415.564 46.6ZM520.804 91H507.054V49.35H484.204V76.25C484.204 77.6833 484.538 78.8167 485.204 79.65C485.904 80.4833 486.888 80.9 488.154 80.9C488.821 80.9 489.388 80.8333 489.854 80.7C490.321 80.5333 490.721 80.3667 491.054 80.2C491.388 80 491.688 79.8333 491.954 79.7C492.254 79.5333 492.554 79.45 492.854 79.45C493.254 79.45 493.588 79.55 493.854 79.75C494.121 79.9167 494.388 80.2167 494.654 80.65L498.804 87.25C496.904 88.75 494.754 89.8833 492.354 90.65C489.954 91.4167 487.471 91.8 484.904 91.8C482.571 91.8 480.504 91.4667 478.704 90.8C476.904 90.1 475.388 89.1167 474.154 87.85C472.921 86.5833 471.988 85.05 471.354 83.25C470.721 81.45 470.404 79.4167 470.404 77.15V49.35H465.554C464.821 49.35 464.188 49.1167 463.654 48.65C463.154 48.1833 462.904 47.4833 462.904 46.55V41.15L471.154 39.65L473.954 26.3C474.321 24.8 475.338 24.05 477.004 24.05H484.204V39.75H520.804V91ZM522.954 24.7C522.954 25.8333 522.721 26.9167 522.254 27.95C521.788 28.95 521.154 29.8333 520.354 30.6C519.588 31.3333 518.671 31.9333 517.604 32.4C516.571 32.8333 515.454 33.05 514.254 33.05C513.121 33.05 512.038 32.8333 511.004 32.4C510.004 31.9333 509.121 31.3333 508.354 30.6C507.588 29.8333 506.971 28.95 506.504 27.95C506.071 26.9167 505.854 25.8333 505.854 24.7C505.854 23.5333 506.071 22.45 506.504 21.45C506.971 20.4167 507.588 19.5167 508.354 18.75C509.121 17.9833 510.004 17.3833 511.004 16.95C512.038 16.4833 513.121 16.25 514.254 16.25C515.454 16.25 516.571 16.4833 517.604 16.95C518.671 17.3833 519.588 17.9833 520.354 18.75C521.154 19.5167 521.788 20.4167 522.254 21.45C522.721 22.45 522.954 23.5333 522.954 24.7ZM580.082 39.45L559.832 91H547.332L527.082 39.45H538.532C539.532 39.45 540.365 39.6833 541.032 40.15C541.698 40.6167 542.165 41.2167 542.432 41.95L551.082 67.45C551.648 69.1833 552.148 70.8833 552.582 72.55C553.015 74.1833 553.398 75.8333 553.732 77.5C554.098 75.8333 554.498 74.1833 554.932 72.55C555.398 70.8833 555.932 69.1833 556.532 67.45L565.482 41.95C565.715 41.2167 566.165 40.6167 566.832 40.15C567.498 39.6833 568.282 39.45 569.182 39.45H580.082ZM616.992 59.15C616.992 57.7167 616.792 56.35 616.392 55.05C616.025 53.75 615.425 52.6 614.592 51.6C613.758 50.6 612.708 49.8167 611.442 49.25C610.175 48.65 608.658 48.35 606.892 48.35C603.592 48.35 601.008 49.2833 599.142 51.15C597.275 53.0167 596.058 55.6833 595.492 59.15H616.992ZM595.292 67.35C595.725 72.1833 597.092 75.7167 599.392 77.95C601.725 80.1833 604.758 81.3 608.492 81.3C610.392 81.3 612.025 81.0833 613.392 80.65C614.792 80.1833 616.008 79.6833 617.042 79.15C618.108 78.5833 619.058 78.0833 619.892 77.65C620.758 77.1833 621.608 76.95 622.442 76.95C623.508 76.95 624.342 77.35 624.942 78.15L628.942 83.15C627.475 84.85 625.858 86.2667 624.092 87.4C622.325 88.5 620.492 89.3833 618.592 90.05C616.692 90.6833 614.775 91.1167 612.842 91.35C610.908 91.6167 609.042 91.75 607.242 91.75C603.642 91.75 600.275 91.1667 597.142 90C594.042 88.8 591.325 87.05 588.992 84.75C586.692 82.4167 584.875 79.5333 583.542 76.1C582.208 72.6667 581.542 68.6833 581.542 64.15C581.542 60.65 582.108 57.35 583.242 54.25C584.408 51.15 586.075 48.45 588.242 46.15C590.408 43.85 593.042 42.0333 596.142 40.7C599.242 39.3333 602.742 38.65 606.642 38.65C609.942 38.65 612.975 39.1833 615.742 40.25C618.542 41.2833 620.942 42.8 622.942 44.8C624.975 46.8 626.542 49.2667 627.642 52.2C628.775 55.1 629.342 58.4167 629.342 62.15C629.342 63.1833 629.292 64.0333 629.192 64.7C629.092 65.3667 628.925 65.9 628.692 66.3C628.458 66.7 628.142 66.9833 627.742 67.15C627.342 67.2833 626.825 67.35 626.192 67.35H595.292Z" fill="black"/>
</mask>
<g mask="url(#mask0)">
<g clip-path="url(#clip1)">
<rect width="399" height="141" transform="translate(235 -5)" fill="#88C9F9"/>
<path d="M452.721 1.87767C448.718 4.10234 445.389 7.86234 440.861 6.50325C433.518 4.30209 423.726 -0.593749 417.361 5.52408C410.997 11.6419 409.528 17.2741 417.361 17.0312C425.195 16.7884 430.58 7.48241 434.497 11.3991C438.413 15.3157 437.43 18.5 428.132 19.722C418.834 20.944 408.792 22.4167 403.406 22.4167C398.021 22.4167 396.795 25.597 400.469 29.028C404.143 32.459 398.264 32.6979 392.146 36.125C386.028 39.5521 393.615 41.0208 398.757 43.9583C403.9 46.8958 407.813 43.222 410.018 38.3262C412.223 33.4303 421.693 27.5553 425.645 28.2917C429.601 29.028 429.601 30.9863 428.865 34.4095C428.128 37.8327 431.802 36.8574 432.045 32.9408C432.288 29.0241 436.698 26.0866 440.121 25.8437C443.544 25.6009 446.486 30.4968 442.569 32.9408C438.652 35.3848 434.736 37.347 439.632 38.5729C444.527 39.7988 447.954 46.1634 442.326 48.8542C436.698 51.5449 426.906 53.2604 422.5 51.0553C418.094 48.8503 408.055 45.6699 405.365 47.3815C402.674 49.0931 401.205 50.8673 398.021 52.0619C394.841 53.2565 381.865 59.1315 381.618 66.722C381.371 74.3125 381.132 82.8821 386.271 83.125C391.41 83.3678 403.896 79.9446 407.813 76.7604C411.729 73.5761 417.115 74.3125 418.826 77.9824C420.538 81.6523 419.316 83.8574 417.604 89.7324C415.893 95.6074 418.724 98.5449 421.47 103.684C424.216 108.822 426.417 111.76 426.417 115.434C426.417 119.107 430.333 122.777 436.208 116.656C442.083 110.534 447.469 98.541 449.917 94.1347C452.365 89.7285 454.323 79.9368 457.26 77.9785C460.198 76.0201 464.851 71.3671 461.42 72.1035C457.989 72.8398 451.139 71.8606 449.427 66.9648C447.716 62.069 440.372 52.7669 443.795 51.7878C447.218 50.8086 451.139 57.2319 452.607 60.2634C454.076 63.2949 456.035 66.9648 458.972 67.944C461.91 68.9231 468.274 61.3914 470.232 60.2634C472.191 59.1315 470.722 54.4824 466.805 54.972C462.889 55.4616 457.75 54.972 457.75 52.528C457.75 50.084 462.646 46.8958 466.563 47.6322C470.479 48.3685 473.417 49.5905 475.865 52.528C478.313 55.4655 483.208 60.8509 485.167 64.278C487.125 67.7051 495.521 50.0762 496.5 43.9583C497.15 39.8928 530.705 15.9009 531.5 13.5C527.532 -9.33025 473.005 11.5323 452.721 1.87767Z" fill="#5C913B"/>
<path d="M353.009 88.013C349.026 86.4855 349.735 87.0417 347.279 81.8207C344.823 76.6037 343.335 74.9235 337.813 74.3125C332.286 73.7054 332.494 74.1363 330.958 71.375C329.423 68.6098 323.196 72.1231 319.208 73.6623C315.209 75.1977 316.196 78.5425 314.967 78.2292C313.733 77.9237 310.631 77.1286 307.552 74.6768C304.482 72.2171 309.836 70.2979 311.375 68.7665C312.914 67.2272 308.477 68.0654 306.937 67.1372C305.398 66.2207 302.645 68.9819 300.189 66.5183C297.729 64.0626 299.269 60.377 298.963 57.3063C298.654 54.2317 302.95 53.6208 305.715 53.0058C308.477 52.3948 310.623 53.0097 310.623 56.6914C310.623 60.377 314.003 61.6068 313.083 57.3024C312.162 52.998 314.003 51.776 315.237 49.6257C316.463 47.4755 318.613 44.4009 321.374 39.7949C324.139 35.1889 325.984 37.3352 329.36 37.6642C332.74 37.9972 333.661 37.3392 336.117 37.6486C338.564 37.958 336.117 34.5779 337.041 31.2017C337.957 27.8256 341.338 28.4366 344.722 29.3609C348.098 30.2813 341.338 25.0565 340.112 22.2952C338.878 19.5301 335.502 22.2952 333.359 17.6892C331.193 13.0832 328.174 10.1027 325.408 9.69141C322.643 9.27625 326.29 15.5429 324.139 18.9191C321.981 22.2952 318.676 21.7665 315.288 21.7665C311.916 21.7665 308.782 18.9191 311.242 14.6186C313.694 10.322 318.382 10.7646 320.838 7.079C323.297 3.39733 312.104 3.73416 308.109 2.50825C304.114 1.27841 299.32 1.29016 295.328 4.36083C291.333 7.42758 282.791 8.38716 279.411 9.61308C276.035 10.839 275.428 7.57641 274.817 5.11675C274.543 4.024 273.297 3.67933 271.543 3.7185C262.848 8.5125 255.316 15.1238 249.351 22.9924C250.279 26.1532 254.775 22.2522 255.657 21.3709C256.577 20.4505 261.183 21.6803 261.794 25.0565C262.409 28.4327 262.103 32.1261 260.877 35.1967C259.648 38.2635 263.948 42.564 266.404 46.8645C268.864 51.1689 271.625 51.165 272.855 51.165C274.081 51.165 281.146 53.9302 280.837 57.3063C280.531 60.6864 287.288 63.7532 290.053 65.9034C292.818 68.0615 294.565 70.1804 298.152 70.7992C301.744 71.4181 305.943 77.2892 307.783 77.908C309.197 78.378 311.59 80.6379 313.036 81.339C311.136 83.7438 307.458 88.6827 307.458 90.9583C307.458 94.0368 311.473 98.8739 313.008 100.1C314.54 101.322 318.95 102.254 319.862 105.321C320.787 108.391 319.22 118.727 316.463 121.489C313.69 124.25 312.683 130.779 312.683 130.779C312.683 130.779 313.658 132.898 316.925 130.779C320.536 128.441 326.583 121.782 329 120.333C333.606 117.564 338.083 114.204 342.383 110.217C346.684 106.226 345.125 103.429 347.279 99.4457C349.429 95.4547 352.21 95.6348 355.892 92.2665C359.581 88.8825 357.004 89.5522 353.009 88.013Z" fill="#5C913B"/>
<path d="M504.014 94.3854C503.771 90.4688 503.771 89.7363 503.771 85.0833C503.771 80.4303 505.972 81.1667 508.177 78.9655C510.382 76.7643 509.893 76.5176 513.562 74.1049C517.232 71.6923 515.278 68.931 515.031 67.4622C514.785 65.9935 512.583 67.2155 508.909 67.7012C505.236 68.1868 506.466 66.4792 504.26 65.5C502.055 64.5208 501.08 63.0521 499.607 58.6458C498.135 54.2396 497.892 53.0137 498.385 49.3437C498.879 45.6738 500.591 49.097 500.833 53.0137C501.076 56.9303 504.507 55.4616 504.507 57.9095C504.507 60.3574 509.403 63.0482 510.625 63.7845C511.847 64.5208 515.278 60.1107 516.5 58.8887C517.722 57.6667 519.195 55.9512 519.68 54.972C520.166 53.9928 526.292 53.2565 527.514 53.2565C528.736 53.2565 531.673 56.9303 531.673 58.6419C531.673 60.3535 533.142 65.0065 534.368 67.6973C535.594 70.388 538.285 70.8776 540.732 72.8359C543.18 74.7942 544.406 73.0787 544.406 73.0787C544.406 73.0787 543.427 68.9192 543.427 65.4882C543.427 62.0572 546.365 59.1237 546.365 59.1237C546.365 59.1237 551.018 62.5507 551.26 63.5299C551.503 64.5091 555.177 67.9362 555.42 69.6478C555.663 71.3593 557.621 73.5644 561.228 74.054C564.836 74.5436 562.274 69.8945 563.496 66.7102C564.718 63.526 566.434 63.0364 568.635 62.5507C570.836 62.0651 572.551 60.1028 574.02 58.1445C575.489 56.1862 578.18 53.4915 577.937 51.2903C577.694 49.0892 576.958 47.6165 575.979 44.9257C574.999 42.235 578.916 41.2519 580.632 38.0716C582.347 34.8912 580.632 38.0716 584.548 37.0924C588.465 36.1132 586.749 36.1132 587.486 34.6445C588.222 33.1757 588.708 31.707 587.975 29.0123C587.243 26.3177 584.548 29.0123 581.857 29.0123C579.167 29.0123 582.84 25.3542 583.083 22.4167C583.326 19.4792 586.757 20.2155 589.201 19.9687C591.645 19.722 592.382 23.1491 593.118 23.8854C593.854 24.6217 601.441 18.9896 603.399 16.2949C605.357 13.6002 601.688 14.3405 602.667 13.2047C603.646 12.0688 596.792 11.8377 594.097 11.403C591.402 10.9682 584.552 10.6667 581.861 9.006C579.171 7.34533 568.889 8.59867 566.195 9.93425C563.5 11.2698 561.788 9.82067 560.562 7.97592C559.337 6.13117 554.198 7.0555 552.729 6.01758C551.26 4.97967 549.792 7.72917 547.833 8.4655C545.875 9.20183 545.139 9.44467 542.695 7.97592C540.251 6.50717 543.427 4.79167 540 3.56967C537.705 2.75108 534.955 3.22892 530.678 3.13492C508.283 14.9437 493 38.4241 493 65.5C493 78.895 496.803 91.3696 503.289 102.031C504.495 100.002 504.194 97.2642 504.014 94.3854ZM560.805 89.7363C562.521 89.9792 567.417 89.7363 563.5 86.556C559.583 83.3757 557.382 85.8197 557.868 82.1497C558.354 78.4798 555.42 78.4759 555.42 78.4759C555.42 81.1706 553.462 84.1081 555.42 86.7988C557.378 89.4896 559.094 89.4896 560.805 89.7363Z" fill="#5C913B"/>
<path d="M585.778 48.8542C581.861 45.6738 584.799 46.653 585.288 42.9792C585.778 39.3053 582.841 39.3053 582.841 39.3053C582.841 42 580.882 44.9375 582.841 47.6282C584.799 50.319 578.924 52.5241 580.639 52.7669C582.355 53.0097 589.695 52.0345 585.778 48.8542ZM570.581 87.0417C573.01 89.7363 572.07 87.0417 575.25 85.8197C578.43 84.5977 572.555 81.903 570.597 80.4342C568.639 78.9655 566.692 78.9107 564.981 82.1497C563.038 85.8197 568.153 84.347 570.581 87.0417ZM599.24 91.9375C598.018 90.4687 595.323 89.7363 592.385 89.8029C589.448 89.8734 589.691 86.5521 586.753 86.7949C583.816 87.0377 581.716 84.8209 580.389 84.1355C577.502 82.6472 579.41 86.0586 580.389 89.799C581.368 93.5394 585.042 90.7077 588.465 92.666C591.888 94.6243 592.139 91.9297 595.319 92.9088C598.499 93.888 599.725 96.0892 602.776 95.8463C605.827 95.6035 600.466 93.4062 599.24 91.9375ZM592.875 102.708C591.653 100.26 588.073 98.0553 586.604 96.8137C585.136 95.5722 582.837 95.1531 580.878 95.8737C578.92 96.5944 577.698 95.8737 576.719 93.935C575.74 91.9962 574.024 92.6738 572.559 92.9167C571.094 93.1595 565.216 95.6113 561.788 97.3229C558.361 99.0345 556.803 100.523 554.554 102.708C551.037 106.131 552.976 103.93 554.554 106.135C556.133 108.337 552.823 115.191 552.58 119.107C552.338 123.024 558.855 117.885 561.303 117.392C563.751 116.898 563.03 115.434 564.988 113.965C566.947 112.496 568.22 112.151 570.37 114.11C572.52 116.068 575.336 117.881 575.336 120.083C575.336 122.284 583.087 125.958 586.025 124.489C588.962 123.02 590.678 120.083 593.368 117.635C596.059 115.187 595.084 110.538 595.816 107.6C596.549 104.663 594.097 105.156 592.875 102.708Z" fill="#5C913B"/>
</g>
</g>
<path d="M72.3398 50.05C71.9732 50.6167 71.5898 51.0333 71.1898 51.3C70.8232 51.5333 70.3065 51.65 69.6398 51.65C68.9732 51.65 68.2898 51.4833 67.5898 51.15C66.8898 50.8167 66.1065 50.4667 65.2398 50.1C64.3732 49.7 63.3732 49.3333 62.2398 49C61.1398 48.6667 59.8565 48.5 58.3898 48.5C56.1565 48.5 54.4232 48.9667 53.1898 49.9C51.9565 50.8 51.3398 52 51.3398 53.5C51.3398 54.5333 51.6898 55.4 52.3898 56.1C53.0898 56.8 54.0065 57.4167 55.1398 57.95C56.3065 58.45 57.6232 58.9333 59.0898 59.4C60.5565 59.8333 62.0565 60.3167 63.5898 60.85C65.1565 61.3833 66.6732 62 68.1398 62.7C69.6065 63.4 70.9065 64.2833 72.0398 65.35C73.2065 66.3833 74.1398 67.65 74.8398 69.15C75.5398 70.6167 75.8898 72.4 75.8898 74.5C75.8898 77 75.4232 79.3167 74.4898 81.45C73.5898 83.55 72.2565 85.3667 70.4898 86.9C68.7232 88.4333 66.5232 89.6333 63.8898 90.5C61.2565 91.3667 58.2232 91.8 54.7898 91.8C53.0232 91.8 51.2732 91.6333 49.5398 91.3C47.8065 91 46.1565 90.5667 44.5898 90C43.0232 89.4 41.5565 88.7167 40.1898 87.95C38.8232 87.1833 37.6398 86.35 36.6398 85.45L39.8398 80.3C40.2065 79.7 40.6565 79.2333 41.1898 78.9C41.7565 78.5667 42.4732 78.4 43.3398 78.4C44.1732 78.4 44.9398 78.6167 45.6398 79.05C46.3398 79.45 47.1232 79.9 47.9898 80.4C48.8565 80.8667 49.8732 81.3167 51.0398 81.75C52.2398 82.15 53.7232 82.35 55.4898 82.35C56.8232 82.35 57.9732 82.2 58.9398 81.9C59.9065 81.6 60.6898 81.2 61.2898 80.7C61.8898 80.1667 62.3232 79.5833 62.5898 78.95C62.8898 78.2833 63.0398 77.6 63.0398 76.9C63.0398 75.7667 62.6732 74.85 61.9398 74.15C61.2398 73.4167 60.3065 72.7833 59.1398 72.25C58.0065 71.7167 56.6898 71.2333 55.1898 70.8C53.6898 70.3667 52.1565 69.8833 50.5898 69.35C49.0565 68.8167 47.5398 68.1833 46.0398 67.45C44.5732 66.7167 43.2565 65.8 42.0898 64.7C40.9565 63.5667 40.0232 62.1833 39.2898 60.55C38.5898 58.9167 38.2398 56.9333 38.2398 54.6C38.2398 52.4667 38.6565 50.45 39.4898 48.55C40.3232 46.6167 41.5732 44.9167 43.2398 43.45C44.9065 41.9833 46.9732 40.8167 49.4398 39.95C51.9398 39.0833 54.8232 38.65 58.0898 38.65C61.7565 38.65 65.0898 39.25 68.0898 40.45C71.0898 41.65 73.5565 43.2167 75.4898 45.15L72.3398 50.05ZM111.478 69.45C108.111 69.6167 105.311 69.9167 103.078 70.35C100.845 70.75 99.0615 71.2833 97.7281 71.95C96.4281 72.6167 95.4948 73.3833 94.9281 74.25C94.3948 75.0833 94.1281 76 94.1281 77C94.1281 79 94.6781 80.4167 95.7781 81.25C96.9115 82.0833 98.4781 82.5 100.478 82.5C102.778 82.5 104.761 82.1 106.428 81.3C108.128 80.4667 109.811 79.1833 111.478 77.45V69.45ZM83.3781 46.6C86.4115 43.8667 89.7615 41.8333 93.4281 40.5C97.0948 39.1333 101.061 38.45 105.328 38.45C108.395 38.45 111.128 38.95 113.528 39.95C115.961 40.95 118.011 42.35 119.678 44.15C121.378 45.9167 122.678 48.0333 123.578 50.5C124.478 52.9667 124.928 55.6667 124.928 58.6V91H118.628C117.328 91 116.328 90.8167 115.628 90.45C114.961 90.0833 114.411 89.3167 113.978 88.15L112.878 84.85C111.578 85.9833 110.311 86.9833 109.078 87.85C107.878 88.7167 106.628 89.45 105.328 90.05C104.028 90.6167 102.628 91.05 101.128 91.35C99.6615 91.65 98.0115 91.8 96.1781 91.8C93.9115 91.8 91.8448 91.5 89.9781 90.9C88.1115 90.3 86.4948 89.4167 85.1281 88.25C83.7948 87.05 82.7615 85.5667 82.0281 83.8C81.2948 82.0333 80.9281 80 80.9281 77.7C80.9281 75.8 81.4115 73.9 82.3781 72C83.3448 70.1 84.9948 68.3833 87.3281 66.85C89.6948 65.2833 92.8281 64 96.7281 63C100.661 61.9667 105.578 61.3833 111.478 61.25V58.6C111.478 55.3667 110.795 53 109.428 51.5C108.061 49.9667 106.095 49.2 103.528 49.2C101.628 49.2 100.045 49.4333 98.7781 49.9C97.5115 50.3333 96.3948 50.8167 95.4281 51.35C94.4948 51.85 93.6115 52.3333 92.7781 52.8C91.9448 53.2333 90.9781 53.45 89.8781 53.45C88.9115 53.45 88.0948 53.2167 87.4281 52.75C86.7948 52.25 86.2615 51.6667 85.8281 51L83.3781 46.6ZM162.65 69.45C159.283 69.6167 156.483 69.9167 154.25 70.35C152.017 70.75 150.233 71.2833 148.9 71.95C147.6 72.6167 146.667 73.3833 146.1 74.25C145.567 75.0833 145.3 76 145.3 77C145.3 79 145.85 80.4167 146.95 81.25C148.083 82.0833 149.65 82.5 151.65 82.5C153.95 82.5 155.933 82.1 157.6 81.3C159.3 80.4667 160.983 79.1833 162.65 77.45V69.45ZM134.55 46.6C137.583 43.8667 140.933 41.8333 144.6 40.5C148.267 39.1333 152.233 38.45 156.5 38.45C159.567 38.45 162.3 38.95 164.7 39.95C167.133 40.95 169.183 42.35 170.85 44.15C172.55 45.9167 173.85 48.0333 174.75 50.5C175.65 52.9667 176.1 55.6667 176.1 58.6V91H169.8C168.5 91 167.5 90.8167 166.8 90.45C166.133 90.0833 165.583 89.3167 165.15 88.15L164.05 84.85C162.75 85.9833 161.483 86.9833 160.25 87.85C159.05 88.7167 157.8 89.45 156.5 90.05C155.2 90.6167 153.8 91.05 152.3 91.35C150.833 91.65 149.183 91.8 147.35 91.8C145.083 91.8 143.017 91.5 141.15 90.9C139.283 90.3 137.667 89.4167 136.3 88.25C134.967 87.05 133.933 85.5667 133.2 83.8C132.467 82.0333 132.1 80 132.1 77.7C132.1 75.8 132.583 73.9 133.55 72C134.517 70.1 136.167 68.3833 138.5 66.85C140.867 65.2833 144 64 147.9 63C151.833 61.9667 156.75 61.3833 162.65 61.25V58.6C162.65 55.3667 161.967 53 160.6 51.5C159.233 49.9667 157.267 49.2 154.7 49.2C152.8 49.2 151.217 49.4333 149.95 49.9C148.683 50.3333 147.567 50.8167 146.6 51.35C145.667 51.85 144.783 52.3333 143.95 52.8C143.117 53.2333 142.15 53.45 141.05 53.45C140.083 53.45 139.267 53.2167 138.6 52.75C137.967 52.25 137.433 51.6667 137 51L134.55 46.6ZM218.922 50.05C218.555 50.6167 218.172 51.0333 217.772 51.3C217.405 51.5333 216.889 51.65 216.222 51.65C215.555 51.65 214.872 51.4833 214.172 51.15C213.472 50.8167 212.689 50.4667 211.822 50.1C210.955 49.7 209.955 49.3333 208.822 49C207.722 48.6667 206.439 48.5 204.972 48.5C202.739 48.5 201.005 48.9667 199.772 49.9C198.539 50.8 197.922 52 197.922 53.5C197.922 54.5333 198.272 55.4 198.972 56.1C199.672 56.8 200.589 57.4167 201.722 57.95C202.889 58.45 204.205 58.9333 205.672 59.4C207.139 59.8333 208.639 60.3167 210.172 60.85C211.739 61.3833 213.255 62 214.722 62.7C216.189 63.4 217.489 64.2833 218.622 65.35C219.789 66.3833 220.722 67.65 221.422 69.15C222.122 70.6167 222.472 72.4 222.472 74.5C222.472 77 222.005 79.3167 221.072 81.45C220.172 83.55 218.839 85.3667 217.072 86.9C215.305 88.4333 213.105 89.6333 210.472 90.5C207.839 91.3667 204.805 91.8 201.372 91.8C199.605 91.8 197.855 91.6333 196.122 91.3C194.389 91 192.739 90.5667 191.172 90C189.605 89.4 188.139 88.7167 186.772 87.95C185.405 87.1833 184.222 86.35 183.222 85.45L186.422 80.3C186.789 79.7 187.239 79.2333 187.772 78.9C188.339 78.5667 189.055 78.4 189.922 78.4C190.755 78.4 191.522 78.6167 192.222 79.05C192.922 79.45 193.705 79.9 194.572 80.4C195.439 80.8667 196.455 81.3167 197.622 81.75C198.822 82.15 200.305 82.35 202.072 82.35C203.405 82.35 204.555 82.2 205.522 81.9C206.489 81.6 207.272 81.2 207.872 80.7C208.472 80.1667 208.905 79.5833 209.172 78.95C209.472 78.2833 209.622 77.6 209.622 76.9C209.622 75.7667 209.255 74.85 208.522 74.15C207.822 73.4167 206.889 72.7833 205.722 72.25C204.589 71.7167 203.272 71.2333 201.772 70.8C200.272 70.3667 198.739 69.8833 197.172 69.35C195.639 68.8167 194.122 68.1833 192.622 67.45C191.155 66.7167 189.839 65.8 188.672 64.7C187.539 63.5667 186.605 62.1833 185.872 60.55C185.172 58.9167 184.822 56.9333 184.822 54.6C184.822 52.4667 185.239 50.45 186.072 48.55C186.905 46.6167 188.155 44.9167 189.822 43.45C191.489 41.9833 193.555 40.8167 196.022 39.95C198.522 39.0833 201.405 38.65 204.672 38.65C208.339 38.65 211.672 39.25 214.672 40.45C217.672 41.65 220.139 43.2167 222.072 45.15L218.922 50.05Z" fill="black"/>
</g>
<defs>
<clipPath id="clip0">
<rect width="660" height="111" rx="4" fill="white"/>
</clipPath>
<clipPath id="clip1">
<rect width="399" height="141" fill="white" transform="translate(235 -5)"/>
</clipPath>
</defs>
</svg>
